<svg id="visual" viewBox="0 0 960 540" width="960" height="540" xmlns="http://www.w3.org/2000/svg" xmlns:xlink="http://www.w3.org/1999/xlink" version="1.1"><rect x="0" y="0" width="960" height="540" fill="#FFF"></rect><path d="M0 227L32 232.5C64 238 128 249 192 242.8C256 236.7 320 213.3 384 187.5C448 161.7 512 133.3 576 125.8C640 118.3 704 131.7 768 143.7C832 155.7 896 166.3 928 171.7L960 177L960 0L928 0C896 0 832 0 768 0C704 0 640 0 576 0C512 0 448 0 384 0C320 0 256 0 192 0C128 0 64 0 32 0L0 0Z" fill="#ff0000" stroke-linecap="round" stroke-linejoin="miter"></path></svg>